# xmcd
#
# Track frame offsets: 
#        150
#        18704
#        35997
#        54138
#        74768
#        93761
#        107940
#        127939
#        146071
#        164947
#        185093
#
# Disc length: 2697 seconds
#
# Revision: 0
# Processed by: cddbd v1.5.2PL0 Copyright (c) Steve Scherf et al.
# Submitted via: ExactAudioCopy v1.0b3
#
DISCID=aa0a870b
DTITLE=群星 - DTS ES 正品 爱浪试音碟 心声篇
DYEAR=2008
DGENRE=DTS ES
TTITLE0=同一首歌
TTITLE1=常回家看看
TTITLE2=让世界充满爱
TTITLE3=爱的箴言
TTITLE4=你的眼神
TTITLE5=金梭和银梭
TTITLE6=独上西楼
TTITLE7=快乐老家
TTITLE8=穿过你的黑发我的手
TTITLE9=再见，我的爱人
TTITLE10=谢谢你常记得我 
EXTD=
EXTT0=
EXTT1=
EXTT2=
EXTT3=
EXTT4=
EXTT5=
EXTT6=
EXTT7=
EXTT8=
EXTT9=
EXTT10=
PLAYORDER=
